<svg width="22" height="22" viewBox="0 0 22 22" fill="none" xmlns="http://www.w3.org/2000/svg">
<path fill-rule="evenodd" clip-rule="evenodd" d="M18.432 6.56205L18.3389 6.54181L18.3251 6.44789C17.8102 2.80942 14.7199 0.0971556 10.9769 0.00242889L10.794 0L10.6086 0.00242889C4.66103 0.102823 0 4.80677 0 10.7106C0 16.663 4.84158 21.5046 10.7923 21.5046C10.998 21.5046 11.202 21.4989 11.4044 21.4884C17.0904 21.1694 21.5596 16.4525 21.579 10.7478C21.5871 10.4361 21.5636 8.8363 20.4196 7.64614C20.0618 7.27209 19.4254 6.78146 18.432 6.56205ZM11.2765 19.1728C15.7473 18.9219 19.2554 15.2113 19.2635 10.7284L19.2643 10.6895C19.2683 10.377 19.1639 9.67346 18.7405 9.24273C18.6514 9.15286 18.5502 9.07514 18.4393 9.0128L18.2774 8.91969L18.2369 9.10348C17.8807 10.7817 16.9676 12.2902 15.6461 13.3842C14.3245 14.4781 12.6719 15.0932 10.9567 15.1295C10.3727 15.1697 9.78655 15.0914 9.23353 14.8994C8.6805 14.7074 8.17196 14.4056 7.73843 14.0123C7.0846 13.42 6.6265 12.6427 6.42502 11.7839C6.22353 10.925 6.2882 10.0251 6.61043 9.20384C6.93265 8.38258 7.49718 7.67884 8.22898 7.18613C8.96078 6.69342 9.82519 6.43509 10.7073 6.44546H15.9723L15.9319 6.27544C15.3732 4.00767 13.3184 2.38112 10.9284 2.3204H10.6426C5.97506 2.39974 2.31878 6.08518 2.31878 10.7106C2.31878 15.3838 6.11998 19.1858 10.7932 19.1858C10.9567 19.1858 11.1146 19.1809 11.2765 19.1728ZM15.8922 8.9375L15.94 8.76343H10.7081C10.1892 8.75901 9.68835 8.95394 9.30892 9.30799C8.92948 9.66204 8.70041 10.1482 8.66894 10.6662C8.63747 11.1842 8.80602 11.6946 9.1398 12.0919C9.47359 12.4893 9.94716 12.7434 10.4628 12.8019C10.5844 12.8174 10.7073 12.8212 10.8296 12.8132L10.8911 12.8108C12.0307 12.7898 13.133 12.4015 14.0341 11.7036C14.9352 11.0058 15.5869 10.0356 15.8922 8.9375Z" fill="#333333"/>
</svg>
